<svg width="448" height="512" viewBox="0 0 448 512" fill="none" xmlns="http://www.w3.org/2000/svg">
<g clip-path="url(#clip0_818_108)">
<path d="M257.5 445.1L235.3 467.3C225.9 476.7 210.7 476.7 201.4 467.3L6.99995 273C-2.40005 263.6 -2.40005 248.4 6.99995 239.1L201.4 44.7C210.8 35.3 226 35.3 235.3 44.7L257.5 66.9C267 76.4 266.8 91.9 257.1 101.2L136.6 216H424C437.3 216 448 226.7 448 240V272C448 285.3 437.3 296 424 296H136.6L257.1 410.8C266.9 420.1 267.1 435.6 257.5 445.1Z" fill="white"/>
</g>
<defs>
<clipPath id="clip0_818_108">
<rect width="448" height="512" fill="white"/>
</clipPath>
</defs>
</svg>
